<?xml version="1.0" standalone="no"?>
<!DOCTYPE svg PUBLIC "-//W3C//DTD SVG 20010904//EN"
 "http://www.w3.org/TR/2001/REC-SVG-20010904/DTD/svg10.dtd">
<svg version="1.0" xmlns="http://www.w3.org/2000/svg"
 width="512.000000pt" height="512.000000pt" viewBox="0 0 512.000000 512.000000"
 preserveAspectRatio="xMidYMid meet">
<metadata>
Created by potrace 1.14, written by Peter Selinger 2001-2017
</metadata>
<g transform="translate(0.000000,512.000000) scale(0.100000,-0.100000)"
fill="#000000" stroke="none">
<path d="M0 2560 l0 -2560 2560 0 2560 0 0 2560 0 2560 -2560 0 -2560 0 0
-2560z m1742 930 c255 -54 469 -213 578 -430 22 -44 80 -207 80 -226 0 -2 -73
-4 -163 -4 l-162 0 -17 48 c-25 69 -87 160 -145 212 -105 95 -229 140 -387
140 -263 0 -471 -148 -553 -394 -24 -72 -27 -96 -27 -216 1 -119 4 -145 27
-216 81 -246 289 -394 552 -394 173 0 296 48 407 160 63 63 123 161 141 230 5
19 12 20 160 20 86 0 158 -4 162 -9 9 -16 -50 -184 -88 -253 -150 -265 -450
-427 -793 -428 -151 0 -296 35 -434 106 -162 83 -276 198 -356 359 -73 149
-87 219 -88 435 0 174 1 190 27 273 48 157 114 264 225 369 146 137 336 219
562 241 65 6 204 -5 292 -23z m2078 3 c267 -55 475 -206 592 -428 34 -66 78
-190 78 -221 0 -11 -30 -14 -158 -14 l-158 0 -32 73 c-62 141 -165 238 -310
294 -135 52 -347 41 -476 -24 -208 -105 -316 -293 -316 -547 1 -197 54 -340
168 -453 71 -71 192 -137 281 -153 71 -13 207 -13 273 1 161 33 295 142 373
303 l47 96 154 0 c178 0 168 8 133 -106 -104 -337 -413 -560 -804 -581 -186
-10 -392 39 -541 128 -75 45 -196 159 -243 228 -147 217 -196 508 -130 782 78
328 354 574 704 628 136 21 243 20 365 -6z"/>
</g>
</svg>
